<svg xmlns="http://www.w3.org/2000/svg" viewBox="0 0 1200 820" width="1200" height="820" role="img" aria-labelledby="t d" font-family="Poppins, 'Segoe UI', Helvetica, Arial, sans-serif">
<title id="t">How CineSets fits together</title>
<desc id="d">A cluster. The CineSets centre (collections, list matching, posters, dashboard, schedule) is the nucleus, ringed by a shell: the questions every server module answers. Four server cores sit evenly around it on one orbit, each with its own module, its own ring and its own bond into the shell: Emby (servers/emby.py), Jellyfin (servers/jellyfin.py), Silo (servers/silo.py) and Plex, dashed, coming next as servers/plex.py.</desc>
<defs>
  <radialGradient id="space" cx="50%" cy="54%" r="75%"><stop offset="0" stop-color="#1b1640"/><stop offset=".55" stop-color="#0e0c24"/><stop offset="1" stop-color="#07060f"/></radialGradient>
  <radialGradient id="core" cx="42%" cy="38%" r="70%"><stop offset="0" stop-color="#ffd36b"/><stop offset=".45" stop-color="#ff7a45"/><stop offset="1" stop-color="#b026ff"/></radialGradient>
  <radialGradient id="glow" r="50%"><stop offset="0" stop-color="#ff9a3c" stop-opacity=".55"/><stop offset=".6" stop-color="#b026ff" stop-opacity=".18"/><stop offset="1" stop-color="#b026ff" stop-opacity="0"/></radialGradient>
  <radialGradient id="emby" cx="38%" cy="35%" r="75%"><stop offset="0" stop-color="#9be38f"/><stop offset="1" stop-color="#2f8a2a"/></radialGradient>
  <radialGradient id="jellyfin" cx="38%" cy="35%" r="75%"><stop offset="0" stop-color="#d79bf0"/><stop offset=".55" stop-color="#8d58d6"/><stop offset="1" stop-color="#0a8fd0"/></radialGradient>
  <radialGradient id="silo" cx="38%" cy="35%" r="75%"><stop offset="0" stop-color="#8ff0ff"/><stop offset=".55" stop-color="#00b8e6"/><stop offset="1" stop-color="#5a4cf0"/></radialGradient>
  <radialGradient id="plex" cx="38%" cy="35%" r="75%"><stop offset="0" stop-color="#ffd76a" stop-opacity=".32"/><stop offset="1" stop-color="#e5a00d" stop-opacity=".1"/></radialGradient>
  <radialGradient id="halo" r="50%"><stop offset="0" stop-color="#fff" stop-opacity=".2"/><stop offset="1" stop-color="#fff" stop-opacity="0"/></radialGradient>
  <filter id="soft" x="-50%" y="-50%" width="200%" height="200%"><feGaussianBlur stdDeviation="2.2"/></filter>
</defs>
<rect width="1200" height="820" rx="28" fill="url(#space)"/>
<circle cx="396" cy="138" r="0.6" fill="#fff" opacity="0.29"/>
<circle cx="87" cy="416" r="0.6" fill="#fff" opacity="0.30"/>
<circle cx="505" cy="208" r="1.7" fill="#fff" opacity="0.48"/>
<circle cx="979" cy="117" r="0.8" fill="#fff" opacity="0.60"/>
<circle cx="276" cy="454" r="0.8" fill="#fff" opacity="0.41"/>
<circle cx="378" cy="657" r="0.8" fill="#fff" opacity="0.31"/>
<circle cx="683" cy="167" r="0.6" fill="#fff" opacity="0.55"/>
<circle cx="259" cy="551" r="1.3" fill="#fff" opacity="0.68"/>
<circle cx="560" cy="740" r="1.0" fill="#fff" opacity="0.41"/>
<circle cx="941" cy="565" r="0.8" fill="#fff" opacity="0.30"/>
<circle cx="368" cy="406" r="1.0" fill="#fff" opacity="0.65"/>
<circle cx="354" cy="785" r="0.6" fill="#fff" opacity="0.53"/>
<circle cx="211" cy="287" r="1.3" fill="#fff" opacity="0.48"/>
<circle cx="1136" cy="81" r="1.7" fill="#fff" opacity="0.57"/>
<circle cx="1036" cy="265" r="1.0" fill="#fff" opacity="0.58"/>
<circle cx="994" cy="757" r="1.3" fill="#fff" opacity="0.63"/>
<circle cx="95" cy="590" r="1.0" fill="#fff" opacity="0.61"/>
<circle cx="1172" cy="661" r="1.0" fill="#fff" opacity="0.64"/>
<circle cx="1049" cy="291" r="1.3" fill="#fff" opacity="0.45"/>
<circle cx="273" cy="244" r="0.8" fill="#fff" opacity="0.47"/>
<circle cx="1084" cy="407" r="0.8" fill="#fff" opacity="0.50"/>
<circle cx="657" cy="709" r="1.3" fill="#fff" opacity="0.73"/>
<circle cx="343" cy="344" r="1.0" fill="#fff" opacity="0.63"/>
<circle cx="461" cy="200" r="0.6" fill="#fff" opacity="0.35"/>
<circle cx="289" cy="202" r="1.3" fill="#fff" opacity="0.71"/>
<circle cx="232" cy="240" r="0.8" fill="#fff" opacity="0.48"/>
<circle cx="1126" cy="559" r="1.7" fill="#fff" opacity="0.77"/>
<circle cx="780" cy="597" r="1.3" fill="#fff" opacity="0.74"/>
<circle cx="925" cy="702" r="1.7" fill="#fff" opacity="0.47"/>
<circle cx="98" cy="183" r="0.8" fill="#fff" opacity="0.31"/>
<circle cx="1121" cy="499" r="0.6" fill="#fff" opacity="0.73"/>
<circle cx="732" cy="136" r="1.0" fill="#fff" opacity="0.78"/>
<circle cx="154" cy="401" r="1.3" fill="#fff" opacity="0.51"/>
<circle cx="382" cy="132" r="1.0" fill="#fff" opacity="0.66"/>
<circle cx="619" cy="180" r="1.7" fill="#fff" opacity="0.45"/>
<circle cx="820" cy="733" r="1.7" fill="#fff" opacity="0.41"/>
<circle cx="766" cy="91" r="1.0" fill="#fff" opacity="0.54"/>
<circle cx="1074" cy="297" r="0.8" fill="#fff" opacity="0.54"/>
<circle cx="924" cy="277" r="0.8" fill="#fff" opacity="0.59"/>
<circle cx="935" cy="611" r="0.8" fill="#fff" opacity="0.69"/>
<circle cx="969" cy="597" r="0.8" fill="#fff" opacity="0.36"/>
<circle cx="1168" cy="636" r="1.3" fill="#fff" opacity="0.39"/>
<circle cx="823" cy="766" r="1.3" fill="#fff" opacity="0.69"/>
<circle cx="859" cy="293" r="1.0" fill="#fff" opacity="0.29"/>
<circle cx="139" cy="387" r="1.0" fill="#fff" opacity="0.36"/>
<circle cx="744" cy="722" r="0.6" fill="#fff" opacity="0.51"/>
<circle cx="777" cy="644" r="0.6" fill="#fff" opacity="0.71"/>
<circle cx="159" cy="323" r="0.8" fill="#fff" opacity="0.51"/>
<circle cx="227" cy="636" r="1.0" fill="#fff" opacity="0.30"/>
<circle cx="1118" cy="583" r="1.3" fill="#fff" opacity="0.47"/>
<circle cx="1118" cy="585" r="0.8" fill="#fff" opacity="0.80"/>
<circle cx="52" cy="481" r="1.3" fill="#fff" opacity="0.69"/>
<circle cx="190" cy="665" r="1.3" fill="#fff" opacity="0.61"/>
<circle cx="1146" cy="527" r="1.7" fill="#fff" opacity="0.66"/>
<circle cx="182" cy="790" r="0.8" fill="#fff" opacity="0.70"/>
<circle cx="265" cy="216" r="1.0" fill="#fff" opacity="0.53"/>
<circle cx="906" cy="274" r="1.7" fill="#fff" opacity="0.48"/>
<circle cx="172" cy="730" r="1.0" fill="#fff" opacity="0.74"/>
<circle cx="788" cy="656" r="1.7" fill="#fff" opacity="0.48"/>
<circle cx="1085" cy="411" r="1.7" fill="#fff" opacity="0.33"/>
<circle cx="612" cy="701" r="0.8" fill="#fff" opacity="0.58"/>
<circle cx="920" cy="137" r="0.8" fill="#fff" opacity="0.51"/>
<circle cx="861" cy="454" r="1.0" fill="#fff" opacity="0.63"/>
<circle cx="921" cy="709" r="0.6" fill="#fff" opacity="0.39"/>
<circle cx="341" cy="622" r="1.7" fill="#fff" opacity="0.50"/>
<circle cx="52" cy="717" r="0.6" fill="#fff" opacity="0.49"/>
<circle cx="575" cy="754" r="1.7" fill="#fff" opacity="0.73"/>
<circle cx="1113" cy="222" r="1.7" fill="#fff" opacity="0.74"/>
<circle cx="255" cy="369" r="1.3" fill="#fff" opacity="0.32"/>
<circle cx="797" cy="631" r="0.8" fill="#fff" opacity="0.77"/>
<circle cx="766" cy="306" r="1.0" fill="#fff" opacity="0.74"/>
<circle cx="1142" cy="191" r="0.6" fill="#fff" opacity="0.47"/>
<circle cx="585" cy="792" r="0.8" fill="#fff" opacity="0.34"/>
<circle cx="413" cy="173" r="1.0" fill="#fff" opacity="0.30"/>
<circle cx="445" cy="284" r="1.3" fill="#fff" opacity="0.49"/>
<circle cx="41" cy="279" r="1.7" fill="#fff" opacity="0.41"/>
<circle cx="1134" cy="108" r="0.8" fill="#fff" opacity="0.78"/>
<circle cx="142" cy="227" r="0.6" fill="#fff" opacity="0.75"/>
<circle cx="231" cy="610" r="1.3" fill="#fff" opacity="0.72"/>
<circle cx="804" cy="758" r="1.3" fill="#fff" opacity="0.33"/>
<circle cx="1086" cy="465" r="1.0" fill="#fff" opacity="0.30"/>
<circle cx="87" cy="557" r="1.3" fill="#fff" opacity="0.74"/>
<circle cx="123" cy="223" r="1.7" fill="#fff" opacity="0.72"/>
<circle cx="97" cy="693" r="1.3" fill="#fff" opacity="0.26"/>
<circle cx="1173" cy="346" r="1.0" fill="#fff" opacity="0.59"/>
<circle cx="70" cy="573" r="0.6" fill="#fff" opacity="0.78"/>
<circle cx="324" cy="161" r="1.0" fill="#fff" opacity="0.60"/>
<circle cx="636" cy="181" r="1.3" fill="#fff" opacity="0.53"/>
<circle cx="226" cy="291" r="0.6" fill="#fff" opacity="0.80"/>
<circle cx="607" cy="783" r="1.7" fill="#fff" opacity="0.51"/>
<circle cx="1104" cy="103" r="1.3" fill="#fff" opacity="0.61"/>
<circle cx="653" cy="713" r="1.7" fill="#fff" opacity="0.42"/>
<circle cx="270" cy="199" r="0.8" fill="#fff" opacity="0.71"/>
<circle cx="840" cy="516" r="1.3" fill="#fff" opacity="0.79"/>
<text x="48" y="68" fill="#fff" font-size="34" font-weight="700" letter-spacing=".5">How CineSets fits together</text>
<text x="48" y="100" fill="#c9c3ff" font-size="17">One centre makes the collections. Each media server is its own core around it.</text>
<text x="1152" y="68" text-anchor="end" fill="#8f88c9" font-size="13">CineSets by blurbery</text>
<ellipse cx="600" cy="460" rx="560" ry="301.0" fill="none" stroke="#c9c3ff" stroke-opacity=".28" stroke-width="1.6" stroke-dasharray="1 7" stroke-linecap="round"/>
<linearGradient id="bond-emby" gradientUnits="userSpaceOnUse" x1="450" y1="385" x2="247" y2="284"><stop offset="0" stop-color="#ffd36b"/><stop offset="1" stop-color="#5fd35a"/></linearGradient>
<line x1="450" y1="385" x2="247" y2="284" stroke="url(#bond-emby)" stroke-opacity=".85" stroke-width="3" stroke-linecap="round"/>
<circle cx="450" cy="385" r="5" fill="#ffd36b"/>
<linearGradient id="bond-jellyfin" gradientUnits="userSpaceOnUse" x1="750" y1="385" x2="953" y2="284"><stop offset="0" stop-color="#ffd36b"/><stop offset="1" stop-color="#a77ce8"/></linearGradient>
<line x1="750" y1="385" x2="953" y2="284" stroke="url(#bond-jellyfin)" stroke-opacity=".85" stroke-width="3" stroke-linecap="round"/>
<circle cx="750" cy="385" r="5" fill="#ffd36b"/>
<linearGradient id="bond-silo" gradientUnits="userSpaceOnUse" x1="450" y1="535" x2="247" y2="636"><stop offset="0" stop-color="#ffd36b"/><stop offset="1" stop-color="#00c8f0"/></linearGradient>
<line x1="450" y1="535" x2="247" y2="636" stroke="url(#bond-silo)" stroke-opacity=".85" stroke-width="3" stroke-linecap="round"/>
<circle cx="450" cy="535" r="5" fill="#ffd36b"/>
<linearGradient id="bond-plex" gradientUnits="userSpaceOnUse" x1="750" y1="535" x2="953" y2="636"><stop offset="0" stop-color="#ffd36b"/><stop offset="1" stop-color="#f2b630"/></linearGradient>
<line x1="750" y1="535" x2="953" y2="636" stroke="url(#bond-plex)" stroke-opacity=".85" stroke-width="3" stroke-linecap="round" stroke-dasharray="7 8"/>
<circle cx="750" cy="535" r="5" fill="#ffd36b"/>
<circle cx="600" cy="460" r="250" fill="url(#glow)"/>
<circle cx="600" cy="460" r="168" fill="none" stroke="#ffd36b" stroke-opacity=".75" stroke-width="2" stroke-dasharray="2 7"/>
<circle cx="600" cy="460" r="128" fill="url(#core)"/>
<circle cx="562" cy="414" r="54" fill="#fff" opacity=".13" filter="url(#soft)"/>
<text x="600" y="408" text-anchor="middle" fill="#2a0a3d" font-size="13" font-weight="700" letter-spacing="3">THE CENTRE</text>
<text x="600" y="442" text-anchor="middle" fill="#fff" font-size="30" font-weight="700">CineSets</text>
<text x="600" y="474" text-anchor="middle" fill="#fff" font-size="16.5" font-weight="600">collections · matching</text>
<text x="600" y="498" text-anchor="middle" fill="#fff" font-size="16.5" font-weight="600">posters · dashboard</text>
<text x="600" y="522" text-anchor="middle" fill="#fff" font-size="16.5" font-weight="600">schedule · engine</text>
<rect x="338" y="650" width="524" height="32" rx="16" fill="#0e0c24" fill-opacity=".94" stroke="#ffd36b" stroke-opacity=".75" stroke-width="1.5" stroke-dasharray="2 5"/>
<line x1="600" y1="628" x2="600" y2="650" stroke="#ffd36b" stroke-opacity=".7" stroke-width="2" stroke-dasharray="2 4"/>
<text x="600" y="671" text-anchor="middle" fill="#ffd36b" font-size="13.5" letter-spacing=".6"><tspan font-weight="700">THE SHELL</tspan> · <tspan font-family="Menlo, Consolas, monospace">servers/base.py</tspan> · the questions every server answers</text>
<circle cx="190" cy="255" r="84" fill="url(#halo)"/>
<ellipse cx="190" cy="255" rx="66" ry="30" transform="rotate(-25 190 255)" fill="none" stroke="#5fd35a" stroke-opacity=".8" stroke-width="1.6" stroke-dasharray="1.5 5"/>
<circle cx="250" cy="227" r="5" fill="#5fd35a"/>
<circle cx="190" cy="255" r="46" fill="url(#emby)"/>
<circle cx="176" cy="239" r="17" fill="#fff" opacity=".18" filter="url(#soft)"/>
<text x="190" y="261" text-anchor="middle" fill="#fff" font-size="19" font-weight="700">Emby</text>
<text x="190" y="345" text-anchor="middle" fill="#fff" font-size="15" font-weight="700" font-family="Menlo, Consolas, monospace">servers/emby.py</text>
<text x="190" y="366" text-anchor="middle" fill="#c9c3ff" font-size="14">the Emby API, under /emby</text>
<text x="190" y="385" text-anchor="middle" fill="#c9c3ff" font-size="14">locked sort names</text>
<circle cx="1010" cy="255" r="84" fill="url(#halo)"/>
<ellipse cx="1010" cy="255" rx="66" ry="30" transform="rotate(-8 1010 255)" fill="none" stroke="#a77ce8" stroke-opacity=".8" stroke-width="1.6" stroke-dasharray="1.5 5"/>
<circle cx="1075" cy="246" r="5" fill="#a77ce8"/>
<circle cx="1010" cy="255" r="46" fill="url(#jellyfin)"/>
<circle cx="996" cy="239" r="17" fill="#fff" opacity=".18" filter="url(#soft)"/>
<text x="1010" y="261" text-anchor="middle" fill="#fff" font-size="17" font-weight="700">Jellyfin</text>
<text x="1010" y="345" text-anchor="middle" fill="#fff" font-size="15" font-weight="700" font-family="Menlo, Consolas, monospace">servers/jellyfin.py</text>
<text x="1010" y="366" text-anchor="middle" fill="#c9c3ff" font-size="14">the Jellyfin API, at the root</text>
<text x="1010" y="385" text-anchor="middle" fill="#c9c3ff" font-size="14">titles read as a user</text>
<circle cx="190" cy="665" r="84" fill="url(#halo)"/>
<ellipse cx="190" cy="665" rx="66" ry="30" transform="rotate(9 190 665)" fill="none" stroke="#00c8f0" stroke-opacity=".8" stroke-width="1.6" stroke-dasharray="1.5 5"/>
<circle cx="255" cy="675" r="5" fill="#00c8f0"/>
<circle cx="190" cy="665" r="46" fill="url(#silo)"/>
<circle cx="176" cy="649" r="17" fill="#fff" opacity=".18" filter="url(#soft)"/>
<text x="190" y="671" text-anchor="middle" fill="#fff" font-size="19" font-weight="700">Silo</text>
<text x="190" y="755" text-anchor="middle" fill="#fff" font-size="15" font-weight="700" font-family="Menlo, Consolas, monospace">servers/silo.py</text>
<text x="190" y="776" text-anchor="middle" fill="#c9c3ff" font-size="14">Silo's own API, /api/v2</text>
<text x="190" y="795" text-anchor="middle" fill="#c9c3ff" font-size="14">one library per collection</text>
<circle cx="1010" cy="665" r="84" fill="url(#halo)"/>
<ellipse cx="1010" cy="665" rx="66" ry="30" transform="rotate(26 1010 665)" fill="none" stroke="#f2b630" stroke-opacity=".8" stroke-width="1.6" stroke-dasharray="5 6"/>
<circle cx="1069" cy="694" r="5" fill="#f2b630"/>
<circle cx="1010" cy="665" r="46" fill="url(#plex)" stroke="#f2b630" stroke-opacity=".9" stroke-width="2.2" stroke-dasharray="6 6"/>
<text x="1010" y="667" text-anchor="middle" fill="#ffd76a" font-size="19" font-weight="700">Plex</text>
<text x="1010" y="685" text-anchor="middle" fill="#ffd76a" font-size="11" font-weight="700" letter-spacing="2">SOON</text>
<text x="1010" y="755" text-anchor="middle" fill="#ffd76a" font-size="15" font-weight="700" font-family="Menlo, Consolas, monospace">servers/plex.py</text>
<text x="1010" y="776" text-anchor="middle" fill="#c9c3ff" font-size="14">coming next, as its own module;</text>
<text x="1010" y="795" text-anchor="middle" fill="#c9c3ff" font-size="14">the centre stays the same</text>
</svg>
